<svg width="12px" height="12px" viewBox="0 0 24 24" style="display: inline-block; vertical-align: middle;"><path d="M14.667 10.55l-4.964 4.375c-.19.168-.428.256-.685.256-.17 0-.497-.04-.758-.325-.173-.187-.26-.426-.247-.673.012-.25.125-.48.32-.65l4.964-4.377c.188-.165.43-.255.684-.255.172 0 .5.043.76.326.172.187.26.426.247.672-.015.255-.13.484-.32.65zm.81-2c-.38-.413-.924-.65-1.496-.65-.496 0-.974.18-1.343.505L7.67 12.78c-.396.35-.63.83-.656 1.35-.027.517.153 1.015.51 1.4.38.415.924.65 1.494.65.498 0 .976-.18 1.345-.504l4.965-4.376c.397-.35.63-.83.657-1.35.028-.517-.153-1.014-.508-1.4zm-.414 7.196l-2.3 2.027c-1.03.907-2.36 1.407-3.744 1.407-1.404 0-2.747-.51-3.782-1.437l-.21-.188.868-.764.165.147c.815.715 1.866 1.108 2.96 1.108 1.093 0 2.144-.395 2.957-1.112l2.306-2.032.78.846zm5.928-5.543c-.094 1.83-.915 3.514-2.308 4.742l-4.97 4.38c-1.29 1.134-2.956 1.76-4.692 1.76-1.99 0-3.893-.828-5.222-2.27-1.25-1.36-1.884-3.11-1.79-4.934.096-1.827.914-3.51 2.303-4.738L9.285 4.76c1.29-1.137 2.957-1.764 4.696-1.764 1.99 0 3.892.828 5.22 2.272 1.25 1.358 1.887 3.11 1.79 4.935zM13.98 2c-1.984 0-3.886.714-5.356 2.01L3.652 8.39C2.057 9.8 1.12 11.73 1.01 13.83c-.11 2.093.618 4.104 2.05 5.66 1.514 1.646 3.687 2.59 5.96 2.59 1.98 0 3.88-.712 5.35-2.005l4.97-4.38c1.597-1.407 2.537-3.34 2.648-5.44.11-2.093-.62-4.105-2.052-5.664C18.422 2.945 16.25 2 13.978 2z" fill-rule="evenodd" style="fill: rgb(46, 49, 52);"></path></svg>