<svg xmlns="http://www.w3.org/2000/svg" width="176" height="24" viewBox="0 0 176 24"><defs><clipPath id="avgka"><path d="M50.79 20.89h2.526v2.526H50.79z"/></clipPath></defs><g><g><g><path fill="#2e3134" fill-opacity=".8" d="M175.326 21.39h-1.63v-8.907h-11.885v8.907h-1.601V2.65h1.601v8.372h11.885V2.65h1.63zm-25.203.337c-5.31 0-9.497-3.933-9.497-9.693s4.186-9.694 9.497-9.694c2.978 0 5.226 1.32 6.827 3.316l-1.348.87c-1.18-1.63-3.232-2.725-5.48-2.725-4.41 0-7.81 3.344-7.81 8.233 0 4.832 3.4 8.232 7.81 8.232 2.248 0 4.3-1.096 5.48-2.725l1.348.843c-1.657 2.05-3.85 3.343-6.827 3.343zm-14.695-6.406l-4.44-10.958-4.411 10.958zm4.242 6.07h-1.854l-1.855-4.609h-9.918l-1.854 4.608h-1.855l7.67-18.74H132zm-27.4-1.125c4.493 0 7.413-3.512 7.413-8.232 0-4.777-2.92-8.233-7.413-8.233-4.549 0-7.413 3.456-7.413 8.233 0 4.72 2.864 8.232 7.413 8.232zm.005 1.461c-5.507 0-9.103-4.214-9.103-9.693 0-5.48 3.596-9.694 9.103-9.694 5.48 0 9.104 4.215 9.104 9.694 0 5.479-3.625 9.693-9.104 9.693zm-18.488 0c-5.31 0-9.497-3.933-9.497-9.693s4.187-9.694 9.497-9.694c2.978 0 5.226 1.32 6.828 3.316l-1.349.87c-1.18-1.63-3.231-2.725-5.479-2.725-4.411 0-7.811 3.344-7.811 8.233 0 4.832 3.4 8.232 7.811 8.232 2.248 0 4.299-1.096 5.479-2.725l1.349.843c-1.658 2.05-3.85 3.343-6.828 3.343z"/></g><g><g><path fill="#0096d6" d="M3.69.26c.55 0 .993.448.993.999v2.684c0 .552-.444 1-.992 1H.99a.995.995 0 0 1-.991-1V1.26C0 .709.443.26.99.26z"/></g><g><path fill="#0096d6" d="M3.897 7.8h-2.85A1.04 1.04 0 0 0 0 8.834V23.15h3.897a1.04 1.04 0 0 0 1.046-1.034V8.834A1.04 1.04 0 0 0 3.897 7.8"/></g><g><path fill="#2e3134" fill-opacity=".8" d="M20.535 0l-7.232.164C8.864.316 7.099 3.58 7.099 6.756L7.02 23.154h4.044c.583 0 1.055-.463 1.055-1.037l-.047-6.485c0-.593.421-1.039 1.024-1.039h3.817c.584 0 1.055-.464 1.055-1.036v-2.35c0-.573-.471-1.036-1.055-1.036h-4.819V7.42c0-1.662.886-2.348 2.877-2.348l5.564-.013c.582 0 1.054-.464 1.054-1.037V1.037C21.59.465 21.117 0 20.535 0"/></g><g><path fill="#2e3134" fill-opacity=".8" d="M27.827.26h-2.85c-.579 0-1.047.467-1.047 1.045v22.11h3.897c.578 0 1.046-.469 1.046-1.045V1.305c0-.578-.468-1.045-1.047-1.045"/></g><g><path fill="#2e3134" fill-opacity=".8" d="M44.691 6.756c0-3.175-1.768-6.44-6.209-6.593L32.277 0c-.582 0-1.057.464-1.057 1.037v2.986c0 .573.475 1.037 1.057 1.037l4.535.014c1.992 0 2.88.684 2.88 2.346l-.083 15.734h4.082c.585 0 1.057-.463 1.057-1.036z"/></g><g><path fill="#2e3134" fill-opacity=".8" d="M52.02 0s-6.54.15-7.394.15c-.742.06-.843.563-.36 1.012 1.684 1.472 1.92 3.876 1.92 3.992l5.834.05c.583 0 1.056-.481 1.056-1.075V1.076C53.076.48 52.603 0 52.02 0"/></g><g><g/><g clip-path="url(#avgka)"><path fill="#2e3134" fill-opacity=".8" d="M52.16 21.608c.125 0 .263.104.263.266 0 .151-.138.254-.263.254h-.387v-.52zm.488 1.274l-.387-.58c.084 0 .37-.107.37-.43 0-.27-.226-.443-.47-.443h-.59v1.453h.202v-.574h.25l.375.574zm-.59-1.802c.593 0 1.078.478 1.078 1.074a1.078 1.078 0 0 1-2.155 0c0-.596.48-1.074 1.078-1.074zm-.004 2.336a1.26 1.26 0 0 0 1.262-1.262c0-.705-.56-1.264-1.262-1.264a1.264 1.264 0 0 0 0 2.526z"/></g></g><g><path fill="#0096d6" d="M74.493 10.607l-3.487-3.353c-.498-.417-.879-.243-.928.254-.006.054-.005.266-.007.312a6.53 6.53 0 0 1-.79 2.907c-.671 1.237-1.895 2.185-2.902 3.152-3.307 3.179-9.399 9.01-9.399 9.01h6.494c.369 0 .723-.142.985-.398l10.034-9.802a1.456 1.456 0 0 0 0-2.082"/></g><g><path fill="#0096d6" d="M67.211 3.356c-.108-.13-2.446-2.5-2.446-2.5a2.73 2.73 0 0 0-.27-.232A1.737 1.737 0 0 0 63.412.26H56.98l4.508 4.35 1.248 1.2 4.736 4.553c.07.068.19.055.24-.029 1.256-2.017 1.507-4.575-.5-6.978"/></g></g></g></g></svg>