<svg width="24px" height="24px" viewBox="0 0 24 24" style="display: inline-block; vertical-align: middle;"><path d="M12 2.1c-2.7 0-3.1 0-4.1.1-1.1 0-1.8.2-2.4.5-.7.2-1.3.6-1.8 1.1-.6.6-.9 1.1-1.2 1.8-.2.6-.4 1.4-.4 2.4C2 9.1 2 9.4 2 12.1c0 2.7 0 3.1.1 4.1 0 1.1.2 1.8.5 2.4.3.7.6 1.2 1.2 1.8.6.6 1.1.9 1.8 1.2.6.2 1.4.4 2.4.5h4c2.7 0 3.1 0 4.1-.1 1.1 0 1.8-.2 2.4-.5.7-.3 1.2-.6 1.8-1.2.6-.6.9-1.1 1.2-1.8.2-.6.4-1.4.5-2.4 0-1.1.1-1.4.1-4.1 0-2.7 0-3.1-.1-4.1 0-1.1-.2-1.8-.5-2.4-.3-.7-.6-1.2-1.2-1.8-.6-.6-1.1-.9-1.8-1.2-.6-.2-1.4-.4-2.4-.5-1 .2-1.4.1-4.1.1m0 1.8c2.7 0 3 0 4 .1 1 0 1.5.2 1.9.3.5.2.8.4 1.1.8.3.3.6.7.7 1.1.2.4.4.9.4 1.9 0 1.1.1 1.4.1 4 0 2.7 0 3-.1 4 0 1-.2 1.5-.3 1.9-.2.5-.4.8-.7 1.1-.3.3-.7.6-1.1.7-.5.3-1 .4-2 .5-1.1 0-1.4.1-4 .1s-3 0-4-.1c-1 0-1.5-.2-1.9-.3-.5-.2-.8-.4-1.1-.7-.3-.3-.6-.7-.7-1.1-.1-.4-.3-.9-.3-1.9 0-1.1-.1-1.4-.1-4 0-2.7 0-3 .1-4 0-1 .2-1.5.3-1.9.1-.6.3-1 .7-1.3.3-.3.7-.6 1.1-.7C6.5 4.2 7 4 8 4c1 0 1.3-.1 4-.1m0 11.6c-1.8 0-3.3-1.5-3.3-3.3 0-1.8 1.5-3.3 3.3-3.3 1.8 0 3.3 1.5 3.3 3.3 0 1.8-1.5 3.3-3.3 3.3M12 7c-2.8 0-5.1 2.3-5.1 5.1s2.3 5.1 5.1 5.1 5.1-2.3 5.1-5.1S14.8 7 12 7m6.5-.2c0 .7-.5 1.2-1.2 1.2s-1.2-.5-1.2-1.2.5-1.2 1.2-1.2 1.2.5 1.2 1.2" fill-rule="evenodd" style="fill: rgb(255, 255, 255);"></path></svg>