<svg width="24px" height="24px" viewBox="0 0 24 24" style="display: inline-block; vertical-align: middle;"><path d="M13 17.2c-1 0-2-.4-2.6-1.1l-1.2 4-.1.3c-.3.4-.7.6-1.2.6-.8 0-1.4-.6-1.4-1.4v-.2l.1-.2 2.3-6.9s-.2-.8-.2-1.8c0-2.1 1.2-2.8 2.1-2.8.9 0 1.8.3 1.8 1.6 0 1.7-1.1 2.5-1.1 3.7 0 .9.8 1.7 1.7 1.7 2.9 0 4-2.2 4-4.2 0-2.7-2.4-4.9-5.2-4.9-2.9 0-5.2 2.2-5.2 4.9 0 .8.2 1.7.7 2.4.1.2.2.4.2.6 0 .7-.6 1.2-1.2 1.2-.4 0-.8-.2-1.1-.6C4.3 13 4 11.7 4 10.4 4 6.3 7.5 3 11.8 3s7.8 3.3 7.8 7.4c-.1 3.3-2.1 6.8-6.6 6.8" fill-rule="evenodd" style="fill: rgb(255, 255, 255);"></path></svg>