<svg width="24px" height="24px" viewBox="0 0 24 24" style="display: inline-block; vertical-align: middle;"><path d="M22 6.8c-.7.3-1.5.5-2.2.6.8-.5 1.4-1.2 1.7-2.1-.8.4-1.6.7-2.5.9-.7-.8-1.7-1.2-2.9-1.2-2.1 0-3.8 1.7-3.8 3.8 0 .3 0 .6.1.9-3.2-.2-6.1-1.7-8-4-.4.6-.6 1.2-.6 1.9 0 1.3.7 2.5 1.7 3.1-.6 0-1.2-.2-1.8-.4 0 1.8 1.3 3.4 3.1 3.7-.3.1-.7.1-1 .1-.2 0-.5 0-.7-.1.5 1.5 1.9 2.6 3.6 2.6-1.3 1-3 1.6-4.8 1.6-.3 0-.6 0-.9-.1C4.7 19.4 6.8 20 9 20c7.2 0 11.1-5.8 11.1-10.8v-.5c.7-.5 1.4-1.2 1.9-1.9" fill-rule="evenodd" style="fill: rgb(255, 255, 255);"></path></svg>