<svg width="108" height="24" xmlns="http://www.w3.org/2000/svg" xmlns:xlink="http://www.w3.org/1999/xlink"><defs><filter x="-.8%" y="-1.4%" width="101.6%" height="103.8%" filterUnits="objectBoundingBox" id="a"><feOffset dy="1" in="SourceAlpha" result="shadowOffsetOuter1"/><feGaussianBlur stdDeviation="1" in="shadowOffsetOuter1" result="shadowBlurOuter1"/><feColorMatrix values="0 0 0 0 0.180392157 0 0 0 0 0.192156863 0 0 0 0 0.203921569 0 0 0 0.4 0" in="shadowBlurOuter1"/></filter><rect id="b" x="0" y="0" width="440" height="184" rx="4"/></defs><g transform="translate(-202 -72)" fill="none" fill-rule="evenodd"><rect fill="#F4F5F7" width="1440" height="232" rx="2"/><g transform="translate(36 24)"><use fill="#000" filter="url(#a)" xlink:href="#b"/><use fill="#FFF" xlink:href="#b"/></g><path d="M307.887 72.143c.877 0 1.576.717 1.576 1.576v20.544c0 .877-.717 1.594-1.576 1.594h-104.31A1.578 1.578 0 01202 94.28V73.719c0-.877.716-1.576 1.576-1.576h104.31zm-31.11 6.161h-7.541c-.466 0-.717.251-.788.717l-1.54 10.872c-.09.483.125.716.59.716h3.081c.466 0 .717-.215.788-.68l1.182-8.58c.072-.483.323-.716.788-.716.43 0 .627.25.591.716l-1.307 9.242c-.072.555.036 1.075.394 1.469.358.394.824.59 1.379.59h1.702c.501 0 .752-.25.823-.68l1.612-11.57c.072-.555-.035-1.02-.376-1.469-.358-.43-.824-.627-1.379-.627zm-40.514-1.97H230.1l-.194.008a2.37 2.37 0 00-1.382.583c-.465.394-.716.914-.788 1.505l-1.343 9.474-.012.112c-.025.394.176.605.603.605h3.08l.122-.006c.388-.038.602-.268.667-.675l.662-4.907.024-.122c.095-.387.338-.595.729-.595.43 0 .627.233.59.717l-.823 5.57-.017.184c-.028.485.092.934.41 1.285.36.394.825.59 1.416.59h1.701l.123-.005c.393-.038.636-.268.701-.675l1.612-11.57.03-.16c.071-.47-.048-.888-.37-1.29-.358-.395-.788-.628-1.38-.628zm47.57 1.988h-3.08c-.466 0-.717.251-.789.717l-1.54 10.871c-.09.484.125.717.59.717h3.082c.465 0 .716-.215.788-.68l.752-4.854c.036-.484.286-.717.716-.717s.627.25.555.717l-.465 3.51c-.09.555.071 1.075.43 1.469.358.394.824.59 1.379.59h1.701c.466 0 .717-.25.788-.716l.591-4.227c.09-.483-.125-.716-.59-.716h-.789c-.465 0-.662-.25-.59-.716h.07c.592 0 1.111-.197 1.577-.591.43-.395.716-.878.788-1.47l.43-3.205c.072-.43-.126-.663-.555-.699h-3.117c-.465 0-.716.251-.788.717l-.358 2.292c-.036.448-.287.68-.752.68-.466 0-.663-.214-.591-.68l.358-2.292c.072-.484-.125-.717-.591-.717zm11.642.018h-3.081c-.466 0-.716.251-.788.717l-1.505 10.871c-.09.484.126.717.592.717h3.08c.466 0 .717-.251.788-.717l1.505-10.907c.09-.43-.108-.663-.591-.68zm9.277-.053h-6.555c-.466 0-.716.25-.788.716l-1.54 10.872c-.09.483.125.716.59.716h6.556c.466 0 .716-.215.788-.68l.161-.914c.09-.448-.125-.68-.59-.68h-2.096c-.466 0-.663-.216-.591-.681l.358-2.561c.071-.448.322-.681.788-.681h2.095c.466 0 .717-.25.788-.716l.126-.914c.09-.483-.126-.716-.591-.716h-2.096c-.43 0-.662-.251-.59-.717.07-.483.322-.716.787-.716h2.096c.465 0 .716-.215.788-.68l.161-.914c.072-.43-.125-.663-.645-.734zm-50.095-.072h-3.08c-.467 0-.717.25-.789.716l-1.218 8.58c-.036.483-.322.716-.752.716-.466 0-.663-.215-.591-.68l.358-2.562c.036-.484-.161-.716-.591-.716h-3.116c-.466 0-.717.25-.788.716l-.52 3.51c-.036.556.072 1.075.43 1.47.358.393.824.59 1.38.59h6.16c.556 0 1.075-.197 1.54-.59.43-.395.717-.914.789-1.47l1.343-9.474c.09-.43-.108-.663-.555-.806zm5.82.09h-3.08c-.466 0-.716.25-.788.716l-1.343 9.475c-.036.555.071 1.074.43 1.468.358.394.823.591 1.379.591h6.16c.556 0 1.075-.197 1.541-.59.43-.395.717-.914.788-1.47l1.343-9.474c.036-.43-.16-.663-.626-.717H263.2c-.466 0-.716.251-.788.717l-1.218 8.579c-.036.484-.322.716-.752.716-.466 0-.663-.25-.591-.716l1.218-8.58c.09-.483-.126-.716-.591-.716zm-34.656-1.935h-6.573c-.466 0-.717.25-.788.717l-1.54 10.871c-.09.484.125.717.59.717h6.556c.465 0 .716-.215.788-.681l.16-.95c.09-.483-.124-.716-.59-.716h-2.096c-.465 0-.662-.215-.59-.68l.358-2.561c.071-.448.322-.681.788-.681h2.095c.466 0 .717-.25.788-.716l.126-.914c.09-.483-.126-.716-.592-.716h-2.095c-.466 0-.663-.197-.627-.717.072-.483.322-.716.788-.716h2.096c.465 0 .716-.197.788-.663l.16-.913c.09-.43-.107-.68-.59-.68zm-9.242.018h-7.54c-.555 0-1.075.197-1.54.591a2.315 2.315 0 00-.824 1.469l-1.11 8.095c-.072.556.035 1.075.393 1.469.305.394.788.591 1.38.591h6.16c.556 0 1.075-.197 1.54-.591.466-.394.753-.913.825-1.469l.788-5.803c.09-.483-.126-.716-.591-.716h-3.869c-.466 0-.716.25-.788.716l-.125.914c-.09.322.16.555.59.716.43.126.628.358.592.68l-.394 2.562c-.072.484-.323.716-.788.716h-.556c-.465 0-.662-.25-.59-.716l.913-6.215c.071-.484.322-.716.788-.716h4.388c.466 0 .716-.215.788-.681l.125-.95c.072-.43-.125-.68-.555-.662zm26.866-.09h-3.08c-.466 0-.717.251-.789.717l-1.54 10.872c-.09.483.125.716.59.716h3.081c.502 0 .753-.215.824-.68l1.182-8.58c.036-.483.323-.716.753-.716.465 0 .662.25.59.716l-.322 2.293c-.035.448.162.68.591.68h3.117c.465 0 .716-.25.788-.68l.466-3.206c.071-.555-.126-1.075-.412-1.505-.305-.43-.788-.626-1.38-.626h-3.08c-.466 0-.717.25-.788.716.071-.484-.126-.716-.591-.716zm-10.585 2.347c.465 0 .68.233.59.68-.035.484-.322.681-.787.681-.466 0-.68-.233-.591-.68.071-.466.322-.681.788-.681z" opacity=".804" fill="#2E3134" fill-rule="nonzero"/></g></svg>