<svg width="133" height="23" xmlns="http://www.w3.org/2000/svg" xmlns:xlink="http://www.w3.org/1999/xlink"><defs><path id="a" d="M.18 1.056h16v18.1h-16z"/><path id="c" d="M.18.056h16v18.1h-16z"/><path id="e" d="M.18 0h16v22.357h-16z"/><path id="g" d="M.18 1.056h17.6v18.1H.18z"/><path id="i" d="M.18 0h17.6v22.357H.18z"/><path id="k" d="M.18 0h6.4v22.357H.18z"/><path id="m" d="M.18 1.056h16.895v18.1H.181z"/></defs><g fill="none" fill-rule="evenodd" opacity=".804"><path fill="#2E3134" fill-rule="nonzero" d="M17.469.544l-4.576 12.118L8.29.544H.42v21.963h5.663V7.987l5.562 14.52h2.499l5.531-14.52v14.52h5.664V.544z"/><g transform="translate(26.02 3.744)"><mask id="b" fill="#fff"><use xlink:href="#a"/></mask><path d="M10.806 14.682v-1.42c-.524-.756-1.712-1.12-2.825-1.12-1.319 0-2.538.596-2.538 1.845 0 1.25 1.22 1.845 2.538 1.845 1.113 0 2.3-.395 2.825-1.152v.002zm0 4.08V17.18c-.987 1.182-2.894 1.976-4.937 1.976-2.437 0-5.463-1.682-5.463-5.239 0-3.85 3.024-5.13 5.463-5.13 2.112 0 3.987.687 4.937 1.874v-1.58c0-1.383-1.18-2.338-3.225-2.338-1.581 0-3.162.624-4.443 1.712L1.262 4.931C3.306 3.187 6.037 2.462 8.47 2.462c3.819 0 7.413 1.42 7.413 6.357v9.944h-5.076v-.001z" fill="#2E3134" fill-rule="nonzero" mask="url(#b)"/></g><g transform="translate(42.02 4.744)"><mask id="d" fill="#fff"><use xlink:href="#c"/></mask><path d="M.568 15.688l2.107-3.62c1.187 1.05 3.719 2.138 5.6 2.138 1.512 0 2.138-.432 2.138-1.12 0-1.974-9.25.064-9.25-6.387 0-2.8 2.437-5.237 6.811-5.237 2.701 0 4.938.856 6.652 2.106l-1.938 3.595c-.957-.926-2.768-1.75-4.675-1.75-1.187 0-1.976.462-1.976 1.088 0 1.744 9.213-.064 9.213 6.456 0 3.024-2.663 5.2-7.207 5.2-2.862 0-5.792-.957-7.475-2.469" fill="#2E3134" fill-rule="nonzero" mask="url(#d)"/></g><g transform="translate(58.02 .544)"><mask id="f" fill="#fff"><use xlink:href="#e"/></mask><path d="M11.006 21.963v-9.259c0-1.936-1.019-2.562-2.638-2.562-1.48 0-2.467.82-3.056 1.544v10.276H.237V0h5.075v8c.95-1.12 2.832-2.336 5.494-2.336 3.626 0 5.27 2.042 5.27 4.973v11.326h-5.07z" fill="#2E3134" fill-rule="nonzero" mask="url(#f)"/></g><g transform="translate(74.02 3.744)"><mask id="h" fill="#fff"><use xlink:href="#g"/></mask><path d="M11.5 14.682v-1.42c-.526-.756-1.711-1.12-2.831-1.12-1.319 0-2.538.596-2.538 1.845 0 1.25 1.22 1.845 2.538 1.845 1.12 0 2.305-.395 2.832-1.152v.002zm0 4.08V17.18c-.988 1.182-2.9 1.976-4.937 1.976-2.438 0-5.469-1.682-5.469-5.239 0-3.85 3.03-5.13 5.47-5.13 2.105 0 3.98.687 4.937 1.874v-1.58c0-1.383-1.189-2.338-3.226-2.338-1.58 0-3.163.624-4.45 1.712L1.95 4.931c2.044-1.744 4.775-2.469 7.213-2.469 3.818 0 7.405 1.42 7.405 6.357v9.944h-5.067v-.001z" fill="#2E3134" fill-rule="nonzero" mask="url(#h)"/></g><g transform="translate(91.62 .544)"><mask id="j" fill="#fff"><use xlink:href="#i"/></mask><path d="M8.712 17.882c2.006 0 3.525-1.488 3.525-3.888 0-2.368-1.519-3.856-3.525-3.856-1.088 0-2.4.593-3.03 1.45v4.874c.63.856 1.944 1.42 3.03 1.42zm-8.1 4.08V0h5.07v7.936a5.88 5.88 0 014.712-2.272c3.98 0 7.012 3.13 7.012 8.33 0 5.4-3.094 8.363-7.012 8.363-1.781 0-3.394-.725-4.712-2.239v1.845H.612v-.001z" fill="#2E3134" fill-rule="nonzero" mask="url(#j)"/></g><g transform="translate(109.22 .544)"><mask id="l" fill="#fff"><use xlink:href="#k"/></mask><path fill="#2E3134" fill-rule="nonzero" mask="url(#l)" d="M.826 0h5.068v21.963H.826z"/></g><g transform="translate(115.62 3.744)"><mask id="n" fill="#fff"><use xlink:href="#m"/></mask><path d="M8.944 6.544c-2.208 0-3.062 1.318-3.264 2.469h6.557c-.136-1.12-.955-2.469-3.293-2.469m-8.432 4.25c0-4.607 3.456-8.332 8.432-8.332 4.706 0 8.131 3.456 8.131 8.856v1.157H5.75c.362 1.413 1.68 2.6 3.981 2.6 1.12 0 2.963-.494 3.888-1.35l2.2 3.325c-1.576 1.412-4.213 2.107-6.645 2.107-4.905 0-8.662-3.194-8.662-8.363" fill="#2E3134" fill-rule="nonzero" mask="url(#n)"/></g></g></svg>
