<svg width="112" height="24" xmlns="http://www.w3.org/2000/svg"><g fill="#2E3134" fill-rule="nonzero" opacity=".797"><path d="M22.024 0h23.269v24H22.024V0zm5.96 3.609a123.67 123.67 0 000 2.947c1.337.009 2.675.003 4.012.003a3371.57 3371.57 0 000 10.882c-1.337 0-2.675-.006-4.013.003-.011.983-.011 1.964.003 2.947 3.782.009 7.563.009 11.345 0 .014-.98.011-1.964.006-2.944-1.34-.012-2.678-.006-4.016-.006.006-3.626.006-7.256 0-10.882 1.338 0 2.675.006 4.013-.003.011-.983.011-1.967-.003-2.947-3.782-.009-7.563-.009-11.348 0zM68.78 0h23.342v24H68.78V0zm4.198 3.612c-.012.977-.012 1.958-.006 2.935a81.57 81.57 0 002.239.01c.014 3.628.014 7.258 0 10.887-.747-.006-1.49-.006-2.236.003-.01.98-.012 1.96.003 2.941 4.706.015 9.41.015 14.116 0 .023-1.94.008-3.88.008-5.821a152.786 152.786 0 00-3.064.003 469.45 469.45 0 000 2.871c-1.861.003-3.723-.012-5.584.009-.03-1.437-.01-2.877-.015-4.314h4.39v-2.801h-4.39c0-1.259-.003-2.517.003-3.776 1.815.003 3.626.003 5.44 0-.005.837-.005 1.674-.002 2.514h3.012c-.003-1.82.003-3.64-.003-5.461-4.64-.015-9.275-.015-13.911 0zM.266 3.767c1.072.006 2.143 0 3.214.003.679 4.44 1.425 8.874 2.213 13.296.131-.33.248-.664.327-1.012.767-3.753 1.59-7.496 2.374-11.248.097-.386.208-.969.7-1.01a20.906 20.906 0 012.605 0c.708.328.62 1.27.813 1.917.849 3.785 1.502 7.625 2.476 11.374.867-4.42 1.496-8.883 2.28-13.317.984 0 1.967.003 2.953-.003-1.091 5.084-2.054 10.2-3.087 15.295-.103.404-.123.893-.524 1.13a13.2 13.2 0 01-3.38.009c-.393-.243-.416-.735-.528-1.133-.813-3.746-1.536-7.513-2.411-11.248-.152.29-.252.603-.308.925-.702 3.48-1.469 6.949-2.174 10.429-.103.424-.237 1.086-.8 1.068-1.032.07-2.083.111-3.108-.053-.567-.392-.453-1.165-.638-1.75C2.253 13.551 1.314 8.646.266 3.767zM50.599 3.77c3.228 0 6.46-.003 9.688 0 1 0 2.195.129 2.833 1.007.799 1.056.77 2.44.781 3.7-.002 1.076-.052 2.256-.749 3.14-.48.643-1.329.676-1.99 1.027.89.257 2.031.489 2.324 1.522.568 1.973.208 4.054.5 6.067-1.033-.003-2.063-.003-3.096-.003-.111-1.776-.264-3.55-.346-5.33.015-.708-.752-1.167-1.396-1.106-1.765-.012-3.53.003-5.294-.003v6.44h-3.255V3.77zm3.255 2.704v4.768c1.946-.026 3.898.058 5.842-.041 1.044-.061 1.06-1.317 1.1-2.101-.032-.864.129-2.011-.676-2.582-2.084-.108-4.177-.012-6.266-.044zM97.428 3.77c2.842.011 5.687-.027 8.53.02 1.588.059 3.397.43 4.342 1.844 1.192 1.903 1.004 4.232 1.215 6.375-.208 2.14-.03 4.46-1.215 6.357-1.015 1.51-2.979 1.823-4.665 1.855-2.736.021-5.47.003-8.207.01V3.77zm3.255 2.704v11.052c1.665-.003 3.33.003 4.999.003.799.014 1.768-.196 2.142-.992.56-1.233.422-2.62.469-3.934-.062-1.645.172-3.36-.38-4.94-.25-.808-1.148-1.192-1.935-1.183-1.765-.018-3.53.003-5.295-.006z"/></g></svg>
